<svg width="24" height="24" viewBox="0 0 24 24" fill="none" xmlns="http://www.w3.org/2000/svg"><path fill-rule="evenodd" clip-rule="evenodd" d="M8.25 17.8l3.75 2 3.75-2L18 19V4H6v15l2.25-1.2zm7.5 1.7l3.015 1.608a.5.5 0 0 0 .735-.441V3.5a1 1 0 0 0-1-1h-13a1 1 0 0 0-1 1v17.167a.5.5 0 0 0 .735.44L8.25 19.5l3.515 1.875a.5.5 0 0 0 .47 0L15.75 19.5z" fill="#3F3E3E"></path><path fill-rule="evenodd" clip-rule="evenodd" d="M7.855 9.88c0-.458.371-.828.828-.828h6.462a.828.828 0 1 1 0 1.655H8.683a.828.828 0 0 1-.828-.828zM7.855 13.037c0-.457.371-.827.828-.827h6.462a.828.828 0 1 1 0 1.655H8.683a.828.828 0 0 1-.828-.828z" fill="#3F3E3E"></path></svg>