<svg xmlns="http://www.w3.org/2000/svg" width="24" height="24" viewBox="0 0 24 24" fill="none" class="injected-svg" data-src="/static/images/icons/filter/sort-time.svg" xmlns:xlink="http://www.w3.org/1999/xlink">
<path fill-rule="evenodd" clip-rule="evenodd" d="M9.43239 0.770386C8.9649 0.770386 8.58592 1.14936 8.58592 1.61686C8.58592 2.08435 8.9649 2.46333 9.43239 2.46333H11.1477V4.49905C6.36557 4.9312 2.604 8.94075 2.604 13.8394C2.604 19.0245 6.80903 23.2296 11.9942 23.2296C14.3004 23.2296 16.4115 22.398 18.0378 21.0199C18.3945 20.7177 18.4386 20.1836 18.1364 19.8269C17.8342 19.4702 17.3001 19.4261 16.9434 19.7283C15.6127 20.8558 13.8865 21.5366 11.9942 21.5366C7.74402 21.5366 4.29695 18.0895 4.29695 13.8394C4.29695 9.59211 7.75239 6.15341 12.0055 6.15341C16.2556 6.15341 19.7027 9.60048 19.7027 13.8507C19.7027 14.5884 19.5917 15.3007 19.3962 15.9898C19.2687 16.4396 19.5299 16.9076 19.9797 17.0351C20.4294 17.1627 20.8974 16.9015 21.025 16.4517C21.2584 15.6285 21.3957 14.7607 21.3957 13.8507C21.3957 8.94693 17.6347 4.91983 12.8406 4.49712V2.46333H14.5564C15.0239 2.46333 15.4028 2.08435 15.4028 1.61686C15.4028 1.14936 15.0239 0.770386 14.5564 0.770386H9.43239ZM12.8406 10.6346C12.8406 10.1671 12.4616 9.78811 11.9941 9.78811C11.5266 9.78811 11.1477 10.1671 11.1477 10.6346V14.3816C11.1477 14.8491 11.5266 15.2281 11.9941 15.2281H15.5493C16.0168 15.2281 16.3958 14.8491 16.3958 14.3816C16.3958 13.9141 16.0168 13.5352 15.5493 13.5352H12.8406V10.6346Z" fill="currentColor"></path>
</svg>