<svg xmlns="http://www.w3.org/2000/svg" width="24" height="24" viewBox="0 0 24 24" fill="none" class="injected-svg" data-src="/static/images/icons/filter/sort-fee.svg" xmlns:xlink="http://www.w3.org/1999/xlink">
<g clip-path="url(#clip0-11)">
<path fill-rule="evenodd" clip-rule="evenodd" d="M2 12.0589C2 6.37019 6.53973 1.76223 12.1231 1.81788L12.1247 1.8179C17.6528 1.8848 22.2066 6.78618 21.9995 12.4275L21.9993 12.4327C21.9713 13.0782 21.7082 14.7911 21.4136 16.4169C21.2641 17.2426 21.1023 18.0679 20.9511 18.7544C20.8053 19.416 20.6556 20.0148 20.5233 20.3413C20.3874 20.6768 20.0412 20.8701 19.6917 20.8055L15.7359 20.0748C15.3257 19.999 15.0532 19.5974 15.1273 19.1779C15.2014 18.7584 15.5941 18.4797 16.0044 18.5555L19.302 19.1647C19.3547 18.9576 19.4141 18.7061 19.4782 18.415C19.6239 17.7538 19.7817 16.949 19.9291 16.1357C20.228 14.4857 20.4678 12.8868 20.4908 12.3668C20.6645 7.59354 16.7846 3.41875 12.1076 3.36168C7.36423 3.31483 3.50981 7.22892 3.50981 12.0589C3.50981 12.5698 3.71515 13.4591 4.01501 14.4371C4.24466 15.1863 4.50961 15.925 4.71908 16.4704L11.506 17.7322C11.9162 17.8085 12.1882 18.2104 12.1136 18.6298C12.0391 19.0493 11.6461 19.3275 11.2359 19.2512L4.03909 17.9132C3.78638 17.8662 3.57437 17.6911 3.47635 17.4483C3.24315 16.8707 2.88033 15.8971 2.57433 14.899C2.2778 13.9318 2 12.8346 2 12.0589Z" fill="currentColor"></path>
<path fill-rule="evenodd" clip-rule="evenodd" d="M9.10645 11.3282C9.10645 9.29442 10.7345 7.64343 12.7099 7.64343H20.5005C20.9174 7.64343 21.2554 7.98904 21.2554 8.41537C21.2554 8.8417 20.9174 9.18731 20.5005 9.18731H12.7099C11.5649 9.18731 10.6163 10.1506 10.6163 11.3282C10.6163 12.4989 11.5583 13.469 12.7099 13.469C12.7484 13.469 12.7869 13.472 12.8249 13.478L20.9175 14.7543C21.3296 14.8193 21.6121 15.2135 21.5486 15.6349C21.485 16.0562 21.0995 16.3451 20.6874 16.2801L12.6487 15.0124C10.688 14.9786 9.10645 13.3273 9.10645 11.3282Z" fill="currentColor"></path>
<path d="M13.0017 12.3573C13.5576 12.3573 14.0082 11.8965 14.0082 11.3281C14.0082 10.7596 13.5576 10.2988 13.0017 10.2988C12.4458 10.2988 11.9951 10.7596 11.9951 11.3281C11.9951 11.8965 12.4458 12.3573 13.0017 12.3573Z" fill="currentColor"></path>
</g>
<defs>
<clipPath id="clip0-11">
<rect width="20" height="19" fill="white" transform="translate(2 1.82812)"></rect>
</clipPath>
</defs>
</svg>