<svg xmlns="http://www.w3.org/2000/svg" width="24" height="24" viewBox="0 0 24 24" fill="none" class="injected-svg" data-src="/static/images/icons/filter/sort-distance.svg" xmlns:xlink="http://www.w3.org/1999/xlink">
<g clip-path="url(#clip0-12)">
<path d="M11.4945 22.8283C10.6765 22.8283 9.93587 22.3732 9.56004 21.6295L4.81796 12.1169C3.65732 9.7748 3.71258 7.01092 4.97272 4.70214C6.16653 2.51546 8.24464 1.11688 10.6544 0.872679C11.196 0.81718 11.7708 0.81718 12.3124 0.872679C14.7222 1.11688 16.7892 2.51546 17.9941 4.70214C19.2542 7.01092 19.3205 9.7748 18.1488 12.1169C17.9499 12.5276 17.4414 12.6941 17.0324 12.4943C16.6234 12.2834 16.4576 11.7839 16.6566 11.3732C17.574 9.5195 17.5298 7.33282 16.5239 5.50134C15.6286 3.80305 14.0258 2.71526 12.1577 2.52656C11.7266 2.48216 11.2734 2.48216 10.8312 2.52656C8.97419 2.71526 7.37139 3.80305 6.44287 5.50134C5.44803 7.33282 5.39276 9.5195 6.32128 11.3732L11.0634 20.8858C11.185 21.13 11.4171 21.1633 11.5055 21.1633C11.5939 21.1633 11.8261 21.1411 11.9477 20.8858L14.3242 16.1017C14.5343 15.691 15.0317 15.5245 15.4407 15.7243C15.8497 15.9352 16.0155 16.4347 15.8165 16.8454L13.4399 21.6295C13.0641 22.3621 12.3235 22.8283 11.4945 22.8283Z" fill="currentColor"></path>
<path d="M11.4947 12.006C9.61558 12.006 8.0791 10.4631 8.0791 8.57611C8.0791 6.67803 9.61558 5.14624 11.4947 5.14624C13.3739 5.14624 14.9103 6.68913 14.9103 8.57611C14.9214 10.4742 13.3849 12.006 11.4947 12.006ZM11.4947 6.81123C10.522 6.81123 9.73717 7.59932 9.73717 8.57611C9.73717 9.5529 10.522 10.341 11.4947 10.341C12.4675 10.341 13.2523 9.5529 13.2523 8.57611C13.2633 7.59932 12.4675 6.81123 11.4947 6.81123Z" fill="currentColor"></path>
</g>
<defs>
<clipPath id="clip0-12">
<rect width="15" height="22" fill="white" transform="translate(4 0.828125)"></rect>
</clipPath>
</defs>
</svg>