<svg xmlns="http://www.w3.org/2000/svg" width="24" height="24" viewBox="0 0 24 24" fill="none" class="injected-svg" data-src="/static/images/icons/filter/sort-price.svg" xmlns:xlink="http://www.w3.org/1999/xlink">
<path d="M12.2565 19.4958C12.7073 19.4958 13.0811 19.1219 13.0811 18.6711V17.5386C14.6974 17.3627 15.9729 15.9993 15.9729 14.339C15.9729 12.5577 14.5215 11.1063 12.7403 11.1063H11.7727C10.904 11.1063 10.1893 10.3916 10.1893 9.52302C10.1893 8.65439 10.904 7.93969 11.7727 7.93969H14.6644C15.1152 7.93969 15.4891 7.56585 15.4891 7.11504C15.4891 6.66423 15.1152 6.29039 14.6644 6.29039H13.0811V5.19086C13.0811 4.74005 12.7073 4.36621 12.2565 4.36621C11.8056 4.36621 11.4318 4.71806 11.4318 5.16887V6.30139C9.8155 6.47731 8.54004 7.84073 8.54004 9.50102C8.54004 11.2823 9.99142 12.7336 11.7727 12.7336H12.7403C13.6089 12.7336 14.3236 13.4483 14.3236 14.317C14.3236 15.1856 13.6089 15.9003 12.7403 15.9003H9.84848C9.39767 15.9003 9.02383 16.2741 9.02383 16.7249C9.02383 17.1758 9.39767 17.5496 9.84848 17.5496H11.4318V18.6491C11.4318 19.1219 11.8056 19.4958 12.2565 19.4958Z" fill="currentColor"></path>
<path d="M12.2563 0.945312C6.19787 0.945312 1.27197 5.87121 1.27197 11.9296C1.27197 17.9881 6.19787 22.914 12.2563 22.914C15.6538 22.914 18.8095 21.3746 20.9096 18.6918C21.1845 18.3289 21.1295 17.8121 20.7667 17.5372C20.4038 17.2624 19.887 17.3173 19.6122 17.6802C17.8309 19.9562 15.1481 21.2647 12.2563 21.2647C7.11049 21.2647 2.92127 17.0754 2.92127 11.9296C2.92127 6.78383 7.11049 2.59461 12.2563 2.59461C17.4021 2.59461 21.5913 6.78383 21.5913 11.9296C21.5913 12.3804 21.9652 12.7543 22.416 12.7543C22.8668 12.7543 23.2406 12.3804 23.2406 11.9296C23.2296 5.87121 18.3037 0.945312 12.2563 0.945312Z" fill="currentColor"></path>
</svg>