<svg xmlns="http://www.w3.org/2000/svg" width="24" height="24" viewBox="0 0 24 24" fill="none" class="injected-svg" data-src="/static/images/icons/filter/sort-rating.svg" xmlns:xlink="http://www.w3.org/1999/xlink">
<path d="M6.51283 22.2946C6.06108 22.2946 5.59831 22.1513 5.20165 21.8649C4.41935 21.3029 4.09982 20.3443 4.37528 19.4188L5.84071 14.5707L1.80801 11.5077C1.04775 10.9237 0.739238 9.96509 1.03673 9.05057C1.33423 8.13605 2.14958 7.53005 3.10817 7.51903L8.17659 7.41987L9.84035 2.63792C10.1489 1.71239 10.9752 1.12842 11.9338 1.12842C12.8924 1.12842 13.7188 1.71239 14.0383 2.62691L15.7021 7.40885L20.7705 7.50801C21.7291 7.53005 22.5444 8.12504 22.8419 9.03955C23.1394 9.95407 22.8419 10.9127 22.0707 11.4966L18.038 14.5597L18.3355 15.5403C18.4677 15.9811 18.2253 16.4328 17.7845 16.5651C17.3438 16.6973 16.881 16.4549 16.7488 16.0141L16.2861 14.4826C16.1869 14.152 16.2971 13.7995 16.5725 13.5901L21.068 10.1855C21.3545 9.96509 21.2994 9.6676 21.2663 9.55742C21.2333 9.43621 21.101 9.17177 20.7374 9.16076L15.0961 9.05057C14.7545 9.03956 14.446 8.81919 14.3358 8.49966L12.4847 3.1668C12.3525 2.81422 12.055 2.78116 11.9338 2.78116C11.8126 2.78116 11.5151 2.81422 11.3939 3.1668L9.54286 8.48864C9.43267 8.81919 9.12416 9.03955 8.78259 9.03955L3.14123 9.14974C2.77762 9.17177 2.6454 9.43621 2.61235 9.55742C2.57929 9.6676 2.51318 9.96509 2.81068 10.1855L7.30614 13.5901C7.5816 13.7995 7.7028 14.152 7.59262 14.4826L5.96191 19.8816C5.85173 20.2341 6.07209 20.4325 6.17126 20.5096C6.27042 20.5867 6.53486 20.73 6.83236 20.5206L11.46 17.3033C11.7465 17.1049 12.1211 17.1049 12.4076 17.3033L17.0353 20.5206C17.3328 20.73 17.5972 20.5867 17.6964 20.5096C17.7956 20.4325 18.0159 20.2341 17.9057 19.8816C17.7735 19.4408 18.0159 18.9891 18.4567 18.8569C18.8864 18.7246 19.3491 18.967 19.4814 19.4078C19.7568 20.3223 19.4373 21.2809 18.655 21.8538C17.8727 22.4158 16.87 22.4268 16.0767 21.8759L11.9228 18.9781L7.75789 21.8759C7.39429 22.1513 6.95356 22.2946 6.51283 22.2946Z" fill="currentColor"></path>
</svg>