<svg xmlns="http://www.w3.org/2000/svg" width="24" height="24" viewBox="0 0 24 24" fill="none" class="injected-svg" data-src="/static/images/icons/filter/sort-arrows.svg" xmlns:xlink="http://www.w3.org/1999/xlink">
<path d="M9.09194 18.3366L7.41572 20.0129V1.99625C7.41572 1.55287 7.05885 1.18518 6.60465 1.18518C6.15045 1.18518 5.79358 1.55287 5.79358 1.99625V20.0237L4.11737 18.3475C3.80375 18.0338 3.28467 18.0338 2.97105 18.3475C2.65744 18.6611 2.65744 19.1802 2.97105 19.4938L6.03149 22.5542C6.18289 22.7056 6.38837 22.7921 6.60465 22.7921C6.82094 22.7921 7.02641 22.7056 7.17781 22.5542L10.2383 19.4938C10.5519 19.1802 10.5519 18.6611 10.2383 18.3475C9.92464 18.0338 9.41637 18.023 9.09194 18.3366Z" fill="currentColor"></path>
<path d="M21.0742 4.48249L18.0137 1.42205C17.7109 1.11925 17.1702 1.11925 16.8674 1.42205L13.807 4.48249C13.4934 4.79611 13.4934 5.31519 13.807 5.62881C13.9692 5.79102 14.1747 5.86672 14.3801 5.86672C14.5856 5.86672 14.7911 5.79102 14.9533 5.62881L16.6295 3.95259V21.98C16.6295 22.4234 16.9972 22.7911 17.4406 22.7911C17.884 22.7911 18.2517 22.4234 18.2517 21.98V3.95259L19.9279 5.62881C20.2415 5.94242 20.7606 5.94242 21.0742 5.62881C21.3878 5.31519 21.3878 4.79611 21.0742 4.48249Z" fill="currentColor"></path>
</svg>