<svg width="13" height="13" viewBox="0 0 13 13" fill="none" xmlns="http://www.w3.org/2000/svg"><path d="M11.874 4.36l-.45-.45a.984.984 0 0 0-1.166-.157 1.158 1.158 0 0 1-1.359-.21 1.161 1.161 0 0 1-.21-1.36c.204-.396.14-.863-.158-1.166l-.449-.45a.975.975 0 0 0-1.376 0L.452 6.822a.967.967 0 0 0-.285.688c0 .263.099.508.285.689l.642.641a.63.63 0 0 0 .823.059 1.162 1.162 0 0 1 1.51.116c.362.362.444.91.21 1.36-.204.396-.14.863.158 1.166l.449.45a.987.987 0 0 0 .688.285c.251 0 .496-.093.689-.286l6.253-6.253a.965.965 0 0 0 0-1.377zM7.231 7.345a.433.433 0 0 1-.31.128.433.433 0 0 1-.309-.128L5.096 5.829a.44.44 0 0 1 0-.618.44.44 0 0 1 .618 0l1.517 1.517c.169.169.169.449 0 .618z"></path></svg>