<svg width="24" height="24" viewBox="0 0 24 24" fill="#717171" xmlns="http://www.w3.org/2000/svg"><g clip-path="url(#clip0)"><path d="M22.404 12.31a.703.703 0 0 1 0-.62l.895-1.832a2.083 2.083 0 0 0-.899-2.767l-1.8-.955a.703.703 0 0 1-.366-.503l-.352-2.007a2.084 2.084 0 0 0-2.353-1.71L15.51 2.2a.703.703 0 0 1-.591-.192L13.454.592a2.083 2.083 0 0 0-2.91 0L9.082 2.009a.704.704 0 0 1-.592.192l-2.018-.285a2.083 2.083 0 0 0-2.353 1.71l-.352 2.007a.703.703 0 0 1-.366.503l-1.8.955a2.083 2.083 0 0 0-.9 2.767l.896 1.831a.703.703 0 0 1 0 .622L.7 14.142A2.083 2.083 0 0 0 1.6 16.91l1.8.955a.703.703 0 0 1 .366.503l.352 2.008a2.082 2.082 0 0 0 2.353 1.71l2.018-.286c.218-.03.434.04.592.192l1.465 1.417a2.085 2.085 0 0 0 2.909 0l1.464-1.417a.704.704 0 0 1 .592-.192l2.018.286a2.083 2.083 0 0 0 2.353-1.71l.352-2.008a.703.703 0 0 1 .366-.503l1.8-.955a2.083 2.083 0 0 0 .9-2.767l-.896-1.831zm-.652 3.376l-1.8.955a2.078 2.078 0 0 0-1.08 1.487l-.353 2.007a.705.705 0 0 1-.796.579l-2.018-.285a2.078 2.078 0 0 0-1.748.567l-1.465 1.417a.705.705 0 0 1-.984 0l-1.465-1.417a2.076 2.076 0 0 0-1.748-.568l-2.018.286a.705.705 0 0 1-.796-.579l-.352-2.007a2.078 2.078 0 0 0-1.08-1.487l-1.8-.955a.705.705 0 0 1-.305-.936l.895-1.831a2.079 2.079 0 0 0 0-1.838l-.895-1.83a.705.705 0 0 1 .304-.937l1.8-.955a2.079 2.079 0 0 0 1.08-1.487l.353-2.007a.705.705 0 0 1 .796-.579l2.018.286a2.079 2.079 0 0 0 1.748-.568l1.465-1.417a.705.705 0 0 1 .984 0l1.465 1.417a2.078 2.078 0 0 0 1.747.568l2.019-.286c.38-.054.73.2.796.579l.352 2.007c.112.64.506 1.182 1.08 1.487l1.8.955c.34.18.473.591.305.936l-.896 1.831a2.08 2.08 0 0 0 0 1.838l.896 1.83a.705.705 0 0 1-.305.937z"></path><path d="M17.057 6.943a.692.692 0 0 0-.979 0l-9.135 9.135a.692.692 0 0 0 .979.98l9.135-9.136a.692.692 0 0 0 0-.98zM9.232 5.771a2.54 2.54 0 0 0-2.538 2.538 2.54 2.54 0 0 0 2.538 2.538 2.54 2.54 0 0 0 2.537-2.538A2.54 2.54 0 0 0 9.232 5.77zm0 3.691A1.155 1.155 0 0 1 8.078 8.31a1.155 1.155 0 0 1 2.307 0c0 .636-.517 1.153-1.153 1.153zM14.768 13.153a2.54 2.54 0 0 0-2.537 2.538 2.54 2.54 0 0 0 2.537 2.538 2.54 2.54 0 0 0 2.538-2.538 2.54 2.54 0 0 0-2.538-2.538zm0 3.692a1.155 1.155 0 0 1-1.153-1.154c0-.636.517-1.153 1.153-1.153s1.154.517 1.154 1.153-.518 1.154-1.154 1.154z"></path></g><defs><clipPath id="clip0"><path fill="#717171" d="M0 0h24v24H0z"></path></clipPath></defs></svg>